<svg xmlns="http://www.w3.org/2000/svg" xmlns:xlink="http://www.w3.org/1999/xlink" version="1.1" x="0px" y="0px" viewBox="0 0 100 125" enable-background="new 0 0 100 100" xml:space="preserve"><g><circle fill-rule="evenodd" clip-rule="evenodd" fill="#000000" cx="51.063" cy="22.281" r="11.599"/><path fill-rule="evenodd" clip-rule="evenodd" fill="#000000" d="M79.057,39.8c-0.458-0.38-0.924-0.729-1.398-1.057   c-13.034-8.986-32.055,1.822-39.346,22.874C26.552,60.872,23.04,51.74,26.376,45.243c2.133-4.156,8.359-8.704,18.569-2.897   c2.24,1.273,4.059-0.948,2.458-2.766c-4.828-5.486-17.27-10.031-26.607-1.256C8.766,49.63,21.207,73.93,43.615,85.892   c1.049,0.561,2.121,1.096,3.212,1.599c1.322,0.611,3.3,1.3,5.23,1.323c1.662,0.019,3.538-0.688,4.61-1.323   C76.159,75.973,91.396,52.382,79.057,39.8z"/></g><text x="0" y="115" fill="#000000" font-size="5px" font-weight="bold" font-family="'Helvetica Neue', Helvetica, Arial-Unicode, Arial, Sans-serif">Created by CJS</text><text x="0" y="120" fill="#000000" font-size="5px" font-weight="bold" font-family="'Helvetica Neue', Helvetica, Arial-Unicode, Arial, Sans-serif">from the Noun Project</text></svg>