<svg xmlns="http://www.w3.org/2000/svg" xmlns:xlink="http://www.w3.org/1999/xlink" version="1.1" x="0px" y="0px" viewBox="0 0 60 75" style="enable-background:new 0 0 60 60;" xml:space="preserve"><path d="M46.23,55.01c2.85,0,4.68-1.43,5.16-4.03c0.77-4.09-3.67-5.52-6.92-6.55c-1.29-0.42-2.52-0.81-3.23-1.27  c-3.04-1.98-5.17-4.91-5.83-8.04c-0.1-0.45-0.17-0.95-0.25-1.46c-0.37-2.5-0.93-6.27-5.02-5.96c-2.57,0.2-4.65,2.48-4.62,5.09  c0.03,2.99,0.53,5.78,1.48,8.3c2.92,7.73,11.33,13.84,19.15,13.92H46.23z"/><path d="M20.86,19.99c1.86-0.67,3.62-1.29,4.88-1.39c5.29-0.4,10.36,1.12,13.92,4.17c0.5,0.43,1.02,0.93,1.57,1.47  c1.81,1.76,4.09,3.96,6.66,3.96c1.16,0,2.37-0.44,3.63-1.57c2.59-2.31,2.94-6.43,0.78-9.2c-2.6-3.34-5.56-6.04-8.77-8.05  c-9.9-6.16-24.55-5.81-33.36,0.79C7,12.54,6.19,15.51,7.83,18.75C10.35,23.74,16.17,21.66,20.86,19.99z"/><path d="M11.04,46.66c1.24,0.76,2.58,1.15,3.89,1.15c0.74,0,1.47-0.12,2.18-0.37c1.97-0.69,3.49-2.24,4.28-4.38  c0.38-1.03,0.57-2.13,0.57-3.25c0-1.15-0.2-2.33-0.6-3.47c-0.79-2.25-2.26-4.13-4.15-5.28c-1.95-1.18-4.11-1.46-6.07-0.77  c-1.97,0.69-3.49,2.24-4.28,4.38c-0.77,2.08-0.76,4.46,0.03,6.72C7.67,43.64,9.15,45.52,11.04,46.66z"/><text x="0" y="75" fill="#000000" font-size="5px" font-weight="bold" font-family="'Helvetica Neue', Helvetica, Arial-Unicode, Arial, Sans-serif">Created by Vectorstall</text><text x="0" y="80" fill="#000000" font-size="5px" font-weight="bold" font-family="'Helvetica Neue', Helvetica, Arial-Unicode, Arial, Sans-serif">from the Noun Project</text></svg>