<svg xmlns="http://www.w3.org/2000/svg" data-name="Layer 1" viewBox="0 0 128 160" x="0px" y="0px"><title>miscellaneous 64 solid</title><path d="M121.63135,14.34344a8.67933,8.67933,0,0,0-7.27393,1.19916l-50.3125,35.1983L13.45654,15.41858a8.4939,8.4939,0,0,0-8.96387-.27045A9.11923,9.11923,0,0,0,0,23.06v81.88263a9.15219,9.15219,0,0,0,4.33691,7.81909,8.64143,8.64143,0,0,0,8.81494.01367L51.75146,89.58557a9.22682,9.22682,0,0,0,.60693-15.26422l-6.99561-5.03992a8.46328,8.46328,0,0,0-6.53271-1.48724,8.669,8.669,0,0,0-5.70264,3.81042,9.31259,9.31259,0,0,0-.8208,8.67554L18,88.5368V39.873L57.59375,67.96411c.02734.01953.05566.03906.08447.05664.43994.28027.82373.53217,1.16748.75873,1.77051,1.165,2.95068,1.94525,5.16113,1.875,2.54541.06537,3.728-.77148,6.27832-2.60248L110,39.873V88.5368L95.69336,80.28015a9.31352,9.31352,0,0,0-.82129-8.67651,8.67406,8.67406,0,0,0-5.7002-3.80847,8.47035,8.47035,0,0,0-6.53369,1.48529l-6.99609,5.04089a9.2271,9.2271,0,0,0,.60693,15.2652l38.59961,23.18884a8.50432,8.50432,0,0,0,8.814-.0127A9.15441,9.15441,0,0,0,128,104.94263V23.06A9.07954,9.07954,0,0,0,121.63135,14.34344Z"/><text x="0" y="143" fill="#000000" font-size="5px" font-weight="bold" font-family="'Helvetica Neue', Helvetica, Arial-Unicode, Arial, Sans-serif">Created by priyanka</text><text x="0" y="148" fill="#000000" font-size="5px" font-weight="bold" font-family="'Helvetica Neue', Helvetica, Arial-Unicode, Arial, Sans-serif">from the Noun Project</text></svg>